<svg xmlns="http://www.w3.org/2000/svg" xmlns:xlink="http://www.w3.org/1999/xlink" width="500" zoomAndPan="magnify" viewBox="0 0 375 374.999991" height="500" preserveAspectRatio="xMidYMid meet" version="1.0"><defs><g/><clipPath id="bc8aa4d5b4"><path d="M 253.855469 63.34375 L 374.671875 63.34375 L 374.671875 184.160156 L 253.855469 184.160156 Z M 253.855469 63.34375 " clip-rule="nonzero"/></clipPath></defs><g clip-path="url(#bc8aa4d5b4)"><path fill="#ffffff" d="M 374.984375 123.910156 C 329.558594 132.269531 322.78125 139.050781 314.417969 184.472656 C 306.058594 139.050781 299.277344 132.269531 253.855469 123.910156 C 299.277344 115.546875 306.058594 108.769531 314.417969 63.34375 C 322.78125 108.769531 329.558594 115.546875 374.984375 123.910156 Z M 374.984375 123.910156 " fill-opacity="1" fill-rule="nonzero"/></g><g fill="#ffffff" fill-opacity="1"><g transform="translate(-10.526609, 250.751871)"><g><path d="M 62.109375 -24.421875 C 54.9375 -24.421875 47.78125 -24.421875 40.625 -24 C 45.6875 -29.046875 50.3125 -33.890625 54.734375 -38.953125 L 95.78125 -84.421875 L 95.78125 -108.625 L 10.953125 -108.625 L 10.953125 -84.203125 L 37.890625 -84.203125 C 45.6875 -84.203125 53.46875 -84.203125 61.265625 -84.625 C 55.78125 -79.359375 50.734375 -73.890625 45.6875 -68.625 L 4.203125 -23.78125 L 4.203125 0 L 97.890625 0 L 97.890625 -24.421875 Z M 62.109375 -24.421875 "/></g></g></g><g fill="#ffffff" fill-opacity="1"><g transform="translate(70.51826, 250.751871)"><g><path d="M 42.53125 -122.9375 L 42.53125 -149.890625 L 12.84375 -149.890625 L 12.84375 -122.9375 Z M 42.3125 0 L 42.3125 -108.625 L 12.625 -108.625 L 12.625 0 Z M 42.3125 0 "/></g></g></g><g fill="#ffffff" fill-opacity="1"><g transform="translate(104.408558, 250.751871)"><g><path d="M 65.265625 -76 L 54.734375 -28.625 L 43.578125 -76 L 34.53125 -108.625 L 3.15625 -108.625 L 38.953125 0 L 69.265625 0 L 105.046875 -108.625 L 75.15625 -108.625 Z M 65.265625 -76 "/></g></g></g><g fill="#ffffff" fill-opacity="1"><g transform="translate(191.558236, 250.751871)"><g><path d="M 108.84375 0 C 105.671875 -5.46875 104.625 -12.625 104.625 -22.734375 L 104.625 -70.734375 C 104.625 -97.46875 88.84375 -111.15625 57.6875 -111.15625 C 28.421875 -111.15625 13.46875 -100 11.375 -76.203125 L 38.53125 -75.78125 C 40 -85.890625 45.6875 -90.09375 57.890625 -90.09375 C 69.6875 -90.09375 76.203125 -86.3125 76.203125 -78.3125 L 76.203125 -70.3125 L 38.3125 -62.734375 C 16.421875 -58.3125 5.265625 -47.15625 5.265625 -29.890625 C 5.265625 -10.109375 20 3.15625 42.9375 3.15625 C 57.265625 3.15625 69.046875 -2.109375 76.421875 -10.953125 C 77.046875 -7.15625 77.890625 -3.796875 78.734375 0 Z M 51.359375 -18.734375 C 40.421875 -18.734375 34.3125 -24 34.3125 -31.78125 C 34.3125 -38.953125 39.359375 -43.578125 48.421875 -45.46875 L 76.203125 -51.359375 L 76.203125 -43.359375 C 76.203125 -27.359375 65.46875 -18.734375 51.359375 -18.734375 Z M 51.359375 -18.734375 "/></g></g></g></svg>